# xmcd
#
# Track frame offsets:
#	150
#	12421
#	32767
#	48295
#	65185
#	83763
#	108300
#	125676
#	156817
#	179809
#	207677
#	220080
#	251690
#	273572
#	290820
#
# Disc length: 4067 seconds
#
# Revision: 0
# Processed by: cddbd v1.5.1PL0 Copyright (c) Steve Scherf et al.
# Submitted via: MusicWizard 7.2.0
#
DISCID=ef0fe10f
DTITLE=Various Artist - Blues Express [CD 1/2)
DYEAR=1900
DGENRE=Blues
TTITLE0=Ana Popovic - The Hustle Is On
TTITLE1=Johnny Lang - Angel Of Mercy
TTITLE2=Edgar Winter - Good Ol' Shoe
TTITLE3=Dave Hole - Blues Begins At Home
TTITLE4=Lucky Peterson - Don't Try To Explain
TTITLE5=Tony Galla - A.S.A.P.
TTITLE6=The Ford Blues Band - Tell Me Mamma
TTITLE7=Gary Moore - Stormy Monday
TTITLE8=Dick Heckstall Smith - Rollin' And Tumblin'
TTITLE9=John Mayall - So Many Roads
TTITLE10=Scott Holt - Too Far Gone
TTITLE11=Jay Hooks - Last Time I Left Memphis
TTITLE12=Omar And The Howlers - Low Down Dirty Blues
TTITLE13=Paul Gilbert and Jimi Kidd - 12 Days Of The Blues
TTITLE14=Sonny Landreth - Checking Up On My Baby
EXTD=
EXTT0=
EXTT1=
EXTT2=
EXTT3=
EXTT4=
EXTT5=
EXTT6=
EXTT7=
EXTT8=
EXTT9=
EXTT10=
EXTT11=
EXTT12=
EXTT13=
EXTT14=
PLAYORDER=
